<svg width="465" height="440" viewBox="0 0 465 440" fill="none" xmlns="http://www.w3.org/2000/svg">
<path d="M187.194 1.14514C178.466 4.50201 171.305 11.999 168.955 20.3912C167.948 23.7481 167.724 75.1082 167.948 222.363C168.283 410.571 168.395 420.083 170.298 423.887C172.871 429.146 179.137 435.412 184.396 437.986C188.201 439.888 195.026 440 316.545 440C438.064 440 444.89 439.888 448.694 437.986C453.953 435.412 460.219 429.146 462.793 423.887C464.695 420.083 464.807 410.907 464.807 220.125C464.807 29.3428 464.695 20.1674 462.793 16.363C460.219 11.1039 453.953 4.8377 448.694 2.2641C444.89 0.361873 437.952 0.249977 317.664 0.0261859C222.329 -0.0857098 189.767 0.138082 187.194 1.14514ZM440.637 11.999C445.785 13.4537 451.715 19.2722 453.058 24.3075C454.624 29.6785 454.624 410.571 453.058 415.942C451.715 420.978 445.785 426.796 440.637 428.251C435.49 429.817 197.6 429.817 192.453 428.251C187.306 426.796 181.375 420.978 180.032 415.942C178.466 410.571 178.466 29.6785 180.032 24.3075C181.375 19.6079 187.306 13.4537 191.893 11.999C196.481 10.6563 435.826 10.5444 440.637 11.999Z" fill="url(#paint0_linear_525_48)"/>
<path d="M201.852 24.7547C197.264 26.7688 192.565 32.4755 191.781 36.9513C191.446 38.9654 191.334 106.55 191.446 187.339C191.781 333.587 191.781 334.146 194.131 337.167C195.362 338.846 197.824 341.308 199.502 342.538C202.523 344.888 203.195 344.888 316.545 344.888C429.895 344.888 430.567 344.888 433.588 342.538C435.266 341.308 437.728 338.846 438.959 337.167C441.309 334.146 441.309 333.811 441.309 184.318C441.309 34.8253 441.309 34.4896 438.959 31.4684C437.728 29.79 435.266 27.3283 433.588 26.0974C430.567 23.7476 429.672 23.7476 317.888 23.5238C225.91 23.3 204.538 23.5238 201.852 24.7547ZM428.217 36.8394C429.224 37.8464 429.56 67.275 429.56 162.163V286.143H407.404C383.683 286.143 382.564 286.367 382.564 291.738C382.564 297.109 383.683 297.333 407.404 297.333H429.56V313.893C429.56 325.306 429.112 330.901 428.217 331.796C426.315 333.699 206.775 333.699 204.873 331.796C203.866 330.789 203.531 301.361 203.531 206.473V82.4928H225.686C249.408 82.4928 250.527 82.269 250.527 76.898C250.527 71.527 249.408 71.3033 225.686 71.3033H203.531V54.7427C203.531 43.3293 203.978 37.7346 204.873 36.8394C206.775 34.9372 426.315 34.9372 428.217 36.8394Z" fill="url(#paint1_linear_525_48)"/>
<path d="M312.966 96.0359C311.287 96.931 310.952 98.8332 310.952 107.561V117.967L298.419 118.527C284.097 119.086 278.278 121.1 272.012 127.367C265.634 133.745 263.396 139.004 263.396 148.515C263.396 158.026 265.634 163.285 272.012 169.663C279.845 177.608 282.306 178.055 316.547 178.727C346.087 179.286 347.43 179.398 350.787 181.748C361.081 189.133 360.186 205.134 348.996 211.624C345.304 213.862 343.066 213.974 305.021 214.31L264.963 214.645L263.732 217.331C262.837 219.457 262.837 220.8 263.732 222.926L264.963 225.723L287.677 225.947L310.392 226.282L310.728 236.689C311.064 246.2 311.287 247.095 313.749 248.773C316.323 250.452 316.77 250.452 319.344 248.773C321.806 247.095 322.029 246.2 322.365 236.689L322.701 226.282L336.128 225.723C351.57 225.052 356.158 223.261 362.759 215.54C375.404 200.77 370.928 178.055 353.696 169.551C348.661 167.09 347.094 166.978 317.442 166.418C288.237 165.859 286.335 165.747 283.314 163.509C272.348 155.341 272.348 141.689 283.314 133.521C286.335 131.283 287.901 131.171 326.393 130.835C369.585 130.5 370.257 130.388 370.257 124.345C370.257 118.974 367.123 118.303 343.737 118.303H322.141V107.673C322.141 98.3857 321.918 96.931 320.015 95.924C317.33 94.5812 315.428 94.5812 312.966 96.0359Z" fill="url(#paint2_linear_525_48)"/>
<path d="M306.028 359.436C286.446 366.374 280.628 393.117 295.398 407.887C301.776 414.265 307.035 416.503 316.546 416.503C326.281 416.503 331.316 414.265 338.03 407.327C351.681 393.228 347.765 370.066 330.086 360.891C323.26 357.31 313.637 356.75 306.028 359.436ZM326.729 372.863C334.338 377.787 336.575 389.76 331.316 396.921C327.624 401.956 322.253 404.754 316.546 404.754C303.566 404.754 294.838 390.879 300.657 379.465C303.454 374.094 305.133 372.528 310.616 370.514C315.875 368.611 321.47 369.395 326.729 372.863Z" fill="url(#paint3_linear_525_48)"/>
<path d="M1.44598 74.1002C-0.232456 76.6738 -0.232456 77.1214 1.44598 79.695L3.23631 82.4924H53.9251C91.8577 82.4924 104.949 82.1567 105.957 81.1496C106.74 80.3664 107.299 78.4641 107.299 76.8976C107.299 75.3311 106.74 73.4288 105.957 72.6456C104.949 71.6385 91.8577 71.3028 53.9251 71.3028H3.23631L1.44598 74.1002Z" fill="url(#paint4_linear_525_48)"/>
<path d="M98.5719 120.09C96.2221 121.768 96.1102 122.328 96.1102 144.148V166.415H3.34871L1.67028 168.876C-0.679531 172.233 -0.567635 173.8 2.11786 176.485C4.35577 178.723 5.81042 178.723 77.6474 178.723C149.484 178.723 150.939 178.723 153.177 176.485C154.408 175.254 155.415 173.352 155.415 172.233C155.415 170.219 104.167 118.3 102.153 118.3C101.593 118.3 99.9147 119.083 98.5719 120.09ZM121.287 152.987L134.714 166.415H107.3V152.987C107.3 145.602 107.412 139.56 107.635 139.56C107.747 139.56 113.902 145.602 121.287 152.987Z" fill="url(#paint5_linear_525_48)"/>
<path d="M4.02284 190.697C1.44924 191.369 -0.452987 196.18 0.88976 198.642C2.90388 202.223 52.0261 250.338 53.7045 250.338C54.5997 250.338 56.39 249.666 57.6209 248.771C59.5231 247.317 59.7469 245.414 60.0826 224.714L60.4183 202.223H106.072C148.816 202.223 151.837 202.111 153.515 200.209C156.089 197.299 155.865 193.719 152.956 191.705C150.718 190.138 141.878 189.914 78.2097 190.026C38.4867 190.138 5.1418 190.362 4.02284 190.697ZM47.9978 215.65C47.9978 223.035 47.8859 229.078 47.6621 229.078C47.5503 229.078 41.396 223.035 34.0109 215.65L20.5834 202.223H47.9978V215.65Z" fill="url(#paint6_linear_525_48)"/>
<path d="M48.8919 288.94C47.9967 291.066 47.9967 292.409 48.8919 294.535L50.2346 297.332H153.179L154.521 294.535C155.417 292.409 155.417 291.066 154.521 288.94L153.179 286.143H50.2346L48.8919 288.94Z" fill="url(#paint7_linear_525_48)"/>
<defs>
<linearGradient id="paint0_linear_525_48" x1="46.5" y1="516.5" x2="576.825" y2="-84.6965" gradientUnits="userSpaceOnUse">
<stop stop-color="#0066FE"/>
<stop offset="1" stop-color="#0E7BE6" stop-opacity="0.26"/>
</linearGradient>
<linearGradient id="paint1_linear_525_48" x1="46.5" y1="516.5" x2="576.825" y2="-84.6965" gradientUnits="userSpaceOnUse">
<stop stop-color="#0066FE"/>
<stop offset="1" stop-color="#0E7BE6" stop-opacity="0.26"/>
</linearGradient>
<linearGradient id="paint2_linear_525_48" x1="46.5" y1="516.5" x2="576.825" y2="-84.6965" gradientUnits="userSpaceOnUse">
<stop stop-color="#0066FE"/>
<stop offset="1" stop-color="#0E7BE6" stop-opacity="0.26"/>
</linearGradient>
<linearGradient id="paint3_linear_525_48" x1="46.5" y1="516.5" x2="576.825" y2="-84.6965" gradientUnits="userSpaceOnUse">
<stop stop-color="#0066FE"/>
<stop offset="1" stop-color="#0E7BE6" stop-opacity="0.26"/>
</linearGradient>
<linearGradient id="paint4_linear_525_48" x1="46.5" y1="516.5" x2="576.825" y2="-84.6965" gradientUnits="userSpaceOnUse">
<stop stop-color="#0066FE"/>
<stop offset="1" stop-color="#0E7BE6" stop-opacity="0.26"/>
</linearGradient>
<linearGradient id="paint5_linear_525_48" x1="46.5" y1="516.5" x2="576.825" y2="-84.6965" gradientUnits="userSpaceOnUse">
<stop stop-color="#0066FE"/>
<stop offset="1" stop-color="#0E7BE6" stop-opacity="0.26"/>
</linearGradient>
<linearGradient id="paint6_linear_525_48" x1="46.5" y1="516.5" x2="576.825" y2="-84.6965" gradientUnits="userSpaceOnUse">
<stop stop-color="#0066FE"/>
<stop offset="1" stop-color="#0E7BE6" stop-opacity="0.26"/>
</linearGradient>
<linearGradient id="paint7_linear_525_48" x1="46.5" y1="516.5" x2="576.825" y2="-84.6965" gradientUnits="userSpaceOnUse">
<stop stop-color="#0066FE"/>
<stop offset="1" stop-color="#0E7BE6" stop-opacity="0.26"/>
</linearGradient>
</defs>
</svg>
