<svg width="512" height="440" viewBox="0 0 512 440" fill="none" xmlns="http://www.w3.org/2000/svg">
<path d="M132.2 73.1C65.2 113.2 9.8 146.9 9.2 147.8C8.3 148.9 7.9 153.8 7.9 163.6C7.9 176.4 8.1 178 10 180.4C12 182.9 12.4 183 22 183H31.9V196.4C31.9 208.4 32.1 210 34 212.4C35.8 214.7 36.8 215 42 215H47.9V361H42C36.8 361 35.8 361.3 34 363.6C32.1 366 31.9 367.6 31.9 379.6V393H26.4C21.8 393 20.4 393.4 18.4 395.5C16 397.8 15.9 398.4 15.9 411.5V425H10.4C5.8 425 4.4 425.4 2.4 427.5C-0.8 430.6 -0.8 434.4 2.4 437.5L4.8 440H507L509.4 437.5C512.6 434.4 512.6 430.6 509.4 427.5C507.4 425.4 506 425 501.4 425H495.9V411.5C495.9 398.4 495.8 397.8 493.4 395.5C491.4 393.4 490 393 485.4 393H479.9V379.6C479.9 367.6 479.7 366 477.8 363.6C476 361.3 475 361 469.8 361H463.9V215H469.8C475 215 476 214.7 477.8 212.4C479.7 210 479.9 208.4 479.9 196.4V183H489.8C499.4 183 499.8 182.9 501.8 180.4C503.7 178 503.9 176.4 503.9 163.4C503.9 150.6 503.7 148.8 502 147.1C500.3 145.4 267.6 5.4 260.2 1.6C258.4 0.7 256.3 0 255.5 0C254.7 0 199.3 32.9 132.2 73.1ZM373 86.6L488.9 156.1V168H472.4C459.8 168 455.1 168.4 453 169.5C448.4 171.8 447.5 177.1 450.9 180.8C452.6 182.6 454.1 183 458.9 183H464.9V200H46.9V183H427.8L429.8 180.4C432.5 176.9 432.4 174.7 429.5 171.3L427.1 168.5L22.9 168V156.1L138.7 86.6C202.3 48.4 255 17.1 255.7 17C256.5 17 309.2 48.3 373 86.6ZM95.9 361H62.9V288.7C62.9 248.9 63.2 216 63.6 215.7C63.9 215.3 71.4 215 80.1 215H95.9V361ZM143.9 361H110.9V288.7C110.9 248.9 111.2 216 111.6 215.7C111.9 215.3 119.4 215 128.1 215H143.9V361ZM191.9 361H158.9V288.7C158.9 248.9 159.2 216 159.6 215.7C159.9 215.3 167.4 215 176.1 215H191.9V361ZM304.4 360.5L288.1 361.1L287.7 325.3L287.4 289.5L284.8 284C281.4 276.6 277.2 272 270.7 268.4C265.9 265.8 264.5 265.5 255.9 265.5C247.3 265.5 245.9 265.8 241.1 268.4C234.6 272 230.4 276.6 227 284L224.4 289.5L224.1 325.3L223.7 361.1L207.4 360.5L207.1 289C207 249.7 207.1 216.9 207.4 216.2C207.7 215.2 218 215 256.1 215.2L304.4 215.5V360.5ZM352.7 288.2L352.9 361H319.9V215L336.2 215.2L352.4 215.5L352.7 288.2ZM400.7 288.2L400.9 361H367.9V215L384.2 215.2L400.4 215.5L400.7 288.2ZM448.7 288.2L448.9 361H415.9V215L432.2 215.2L448.4 215.5L448.7 288.2ZM263.6 281.7C265.5 282.6 268.3 285.1 269.7 287.3L272.4 291.4V360.5H239.4V291.4L242 287.3C246.6 280.4 255.9 278 263.6 281.7ZM464.9 393H84.8L82.2 395.6C80.2 397.6 79.8 398.7 80.3 401.3C80.6 403.1 81.9 405.3 83 406.2C85 407.9 96 408 283 408H480.9V425H30.9V408H44.4C57.5 408 58.1 407.9 60.4 405.5C63.5 402.5 63.6 398.4 60.7 395.3C58.9 393.4 57.5 393 52.7 393H46.9V376H464.9V393Z" fill="url(#paint0_linear_525_49)"/>
<path d="M251.7 58C250.3 59.1 248.9 61.2 248.6 62.8C248.1 65.1 247.1 66 243.4 67.5C237.9 69.6 232.4 74.1 230.2 78.3C228 82.6 228.3 90.9 230.7 95.6C234.2 102.5 238.1 105.1 253.3 110.8C265.1 115.3 267.9 117.1 267.9 120.5C267.9 124.4 264.4 126.4 257.1 126.8C248.7 127.2 246 125.8 243.1 119.8C241.6 116.5 240.1 114.8 238.4 114.4C225.1 111.1 225.7 130.3 239.2 138C242.1 139.6 245.2 141 246.1 141C247.2 141 248.1 142 248.4 143.7C249.3 148 250.4 149.4 253.3 150.4C256.3 151.5 260.8 150.3 262 148C262.4 147.2 263 145.3 263.4 143.7C263.7 142 264.6 141 265.7 141C266.6 141 269.7 139.6 272.6 138C285 130.9 286.8 115.7 276.5 106.2C271.9 102 267.4 99.7 256.9 96.2C244.4 92 240.7 87.9 245.5 83.5C249.7 79.6 257 79 263.7 82C267 83.5 268.1 84.6 268.5 87C269.2 90.3 273.1 94 276 94C277 94 279 92.9 280.5 91.7C282.7 89.7 283.2 88.6 283.1 85.1C282.8 77.4 277.3 70.9 268.4 67.5C264.7 66 263.7 65.1 263.2 62.8C262.6 59.7 258.6 56 255.9 56C254.9 56 253 56.9 251.7 58Z" fill="url(#paint1_linear_525_49)"/>
<path d="M187.3 98.3C183.8 101.4 183.5 106.5 186.8 109.2C188.7 110.7 190.9 111 200 111C209.6 111 211.1 110.8 212.9 109C215.9 106 215.6 100.7 212.3 98.1C210 96.3 208.2 96 199.8 96C191 96 189.7 96.2 187.3 98.3Z" fill="url(#paint2_linear_525_49)"/>
<path d="M299.5 98.1C296.2 100.7 295.9 106 298.9 109C300.7 110.8 302.2 111 311.8 111C320.9 111 323.1 110.7 325 109.2C328.3 106.5 328 101.4 324.5 98.3C322.1 96.2 320.8 96 312 96C303.6 96 301.8 96.3 299.5 98.1Z" fill="url(#paint3_linear_525_49)"/>
<defs>
<linearGradient id="paint0_linear_525_49" x1="-115.253" y1="528.54" x2="551.362" y2="-186.449" gradientUnits="userSpaceOnUse">
<stop stop-color="#0066FE"/>
<stop offset="1" stop-color="#0E7BE6" stop-opacity="0.26"/>
</linearGradient>
<linearGradient id="paint1_linear_525_49" x1="-115.253" y1="528.54" x2="551.362" y2="-186.449" gradientUnits="userSpaceOnUse">
<stop stop-color="#0066FE"/>
<stop offset="1" stop-color="#0E7BE6" stop-opacity="0.26"/>
</linearGradient>
<linearGradient id="paint2_linear_525_49" x1="-115.253" y1="528.54" x2="551.362" y2="-186.449" gradientUnits="userSpaceOnUse">
<stop stop-color="#0066FE"/>
<stop offset="1" stop-color="#0E7BE6" stop-opacity="0.26"/>
</linearGradient>
<linearGradient id="paint3_linear_525_49" x1="-115.253" y1="528.54" x2="551.362" y2="-186.449" gradientUnits="userSpaceOnUse">
<stop stop-color="#0066FE"/>
<stop offset="1" stop-color="#0E7BE6" stop-opacity="0.26"/>
</linearGradient>
</defs>
</svg>
