<svg width="432" height="512" viewBox="0 0 432 512" fill="none" xmlns="http://www.w3.org/2000/svg">
<path d="M2.6 2.10001L0 4.10001V136.4C0 261.1 0.1 268.8 1.8 270.2C6.2 274.1 12.1 272.9 14 267.7C14.7 265.7 15 224.5 15 139.9V15H325V362H295.3C262.6 362.1 262.7 362 261 368.1C260.4 370 260 383.8 260 398.7V426H15V360.5C15 304.9 14.8 294.5 13.5 292.1C11.1 287.4 5.7 286.5 2.2 290.3L0 292.6V436.7L2.3 438.8C4.6 441 4.8 441 48.3 441H92V472.4C92 504.2 92.4 508 95.8 510.6C97.2 511.7 123 511.9 230.5 512H363.4L397.7 477.8L432 443.5V173.3L429.7 171.2C426.8 168.5 423 168.4 419.9 170.9L417.5 172.8L417 433H357.9L355.5 435.5L353 437.9V497H107V441H271.4L304.3 408.2C322.4 390.2 337.8 374.3 338.6 372.8C339.8 370.5 340 349.2 340 228V86H416.9L417.5 149.2L420.4 151.7C423.5 154.4 427 154.2 430.3 151.3C431.9 149.8 432 146.7 432 112.5V75.3L429.7 73.2C427.4 71 427.2 71 383.7 71H340V39.6C340 7.79999 339.6 4 336.2 1.39999C334.8 0.299988 303.4 0.100006 169.9 0H5.3L2.6 2.10001ZM314 377.3C314 377.4 305.5 386.1 295 396.5L276 415.5V377H295C305.5 377 314 377.1 314 377.3ZM406 448.3C406 448.4 397.5 457.1 387 467.5L368 486.5V448H387C397.5 448 406 448.1 406 448.3Z" fill="url(#paint0_linear_527_3)"/>
<path d="M148.6 57.1C135.4 59 122 63.7 109.5 70.9C100.9 75.8 98 78.7 98 82.6C98 86 101.7 90 104.9 90C105.8 90 110.3 87.7 115 85C140.3 70.1 169.2 67.1 196.2 76.5C220.6 85 242.9 106.1 252.5 129.9C260.9 150.4 261.7 176.1 254.8 196.5C244.7 226.1 220.1 249.4 190 258C180.6 260.7 159.9 261.8 149 260.1C93.9 251.5 57.8 194.7 73 140.3C75.7 130.5 78.7 124 85.4 113.4C91.5 103.8 91.9 101.2 87.8 97.7C83.1 93.8 79 96 72.1 106.2C53.8 133.5 49.4 172.1 61 203.7C74.5 240.3 106.2 267.3 144.3 274.5C154.5 276.4 174.5 276.4 184.7 274.5C257.8 260.6 296.5 180 261.6 114.4C240 73.8 194 50.5 148.6 57.1Z" fill="url(#paint1_linear_527_3)"/>
<path d="M201 119.6C198.9 120.5 187.9 130.7 173.8 144.7L150.1 168.4L140.3 158.8C131.8 150.6 129.7 149.1 125.4 148.1C112.4 145 100 155 100 168.5C100.1 174.7 103.8 180 119.2 195.6C137 213.6 140.2 216.1 147 216.8C157.9 217.8 156.5 218.9 192.4 183.2C214 161.7 225.9 149.1 227.1 146.5C229.8 140.7 229.5 135.2 226.2 128.9C221.5 119.8 210.2 115.6 201 119.6ZM212.2 134.7C213.2 135.6 214 137.2 214 138.4C214 139.7 203.6 150.8 183.3 171.2C159.3 195.3 152 202 150 202C148.1 202 143.6 198.1 131.3 185.8C122.3 176.8 115 168.8 115 168C115 165.2 117.6 162.7 120.4 162.7C122.6 162.7 125.7 165.2 134.9 174.4C145.2 184.6 147.1 186 150.1 186C153.1 186 155.8 183.7 180 159.5C196.2 143.3 207.2 133 208.4 133C209.5 133 211.2 133.7 212.2 134.7Z" fill="url(#paint2_linear_527_3)"/>
<path d="M75.5 301.9C70.6 303.9 69.1 310.2 72.5 314C74.3 316 75.4 316 171.5 316C267.6 316 268.7 316 270.5 314C273 311.2 272.8 306.4 270.1 303.7L267.9 301.5L172.7 301.3C120.4 301.2 76.6 301.5 75.5 301.9Z" fill="url(#paint3_linear_527_3)"/>
<path d="M72.9 338.8C69.9 341.3 69.9 346.3 72.9 349.3L75.1 351.5H142.4C207.3 351.5 209.9 351.4 211.9 349.6C214.6 347.1 214.7 341.7 212 339C210 337 208.7 337 142.6 337C78.6 337 75.1 337.1 72.9 338.8Z" fill="url(#paint4_linear_527_3)"/>
<defs>
<linearGradient id="paint0_linear_527_3" x1="43.218" y1="601.018" x2="662.129" y2="40.6198" gradientUnits="userSpaceOnUse">
<stop stop-color="#0066FE"/>
<stop offset="1" stop-color="#0E7BE6" stop-opacity="0.26"/>
</linearGradient>
<linearGradient id="paint1_linear_527_3" x1="43.218" y1="601.018" x2="662.129" y2="40.6198" gradientUnits="userSpaceOnUse">
<stop stop-color="#0066FE"/>
<stop offset="1" stop-color="#0E7BE6" stop-opacity="0.26"/>
</linearGradient>
<linearGradient id="paint2_linear_527_3" x1="43.218" y1="601.018" x2="662.129" y2="40.6198" gradientUnits="userSpaceOnUse">
<stop stop-color="#0066FE"/>
<stop offset="1" stop-color="#0E7BE6" stop-opacity="0.26"/>
</linearGradient>
<linearGradient id="paint3_linear_527_3" x1="43.218" y1="601.018" x2="662.129" y2="40.6198" gradientUnits="userSpaceOnUse">
<stop stop-color="#0066FE"/>
<stop offset="1" stop-color="#0E7BE6" stop-opacity="0.26"/>
</linearGradient>
<linearGradient id="paint4_linear_527_3" x1="43.218" y1="601.018" x2="662.129" y2="40.6198" gradientUnits="userSpaceOnUse">
<stop stop-color="#0066FE"/>
<stop offset="1" stop-color="#0E7BE6" stop-opacity="0.26"/>
</linearGradient>
</defs>
</svg>
