<svg width="485" height="486" viewBox="0 0 485 486" fill="none" xmlns="http://www.w3.org/2000/svg">
<path d="M149 1.30086C144.1 2.90087 135.7 11.5009 134.2 16.6009C133.3 19.7009 133 40.6009 133 99.6009V178.501L128.2 180.401C124.5 181.901 118.5 187.301 99.2 206.401C85.8 219.701 73.6 232.501 72.2 235.001L69.5 239.501L69 280.501C68.5 320.301 68.4 321.601 66.3 325.501C65.1 327.701 49.7 343.901 32.1 361.501C14.4 379.101 0 393.901 0 394.401C0 395.401 10 405.001 11 405.001C11.3 405.001 26.5 390.001 44.7 371.701C75 341.401 78.2 337.901 81.2 331.501L84.5 324.501L85.5 243.001L109.6 218.901C129.4 199.201 134.3 194.701 137.3 194.001C148.3 191.601 157.4 200.701 155 211.601C154.3 214.501 150.7 218.701 137.7 231.901C128.6 241.001 120.4 250.101 119.4 252.001C117.8 255.001 117.5 258.301 117.2 273.301L116.8 291.101L126.2 300.901C136.8 312.001 141.9 320.001 145.7 331.501C148 338.701 148.3 341.501 148.9 361.001C149.6 385.401 150.1 387.301 157.6 393.901C163.3 398.901 167.5 400.001 181.6 400.001H193.4L188 405.601C179.2 414.501 177 415.301 159.5 416.001C136.6 416.901 136.9 416.801 105 448.501L79.5 474.001L85.3 479.701L91 485.501L115.8 460.801C129.4 447.301 142.1 435.401 144 434.401C146.7 433.001 150.8 432.401 162.5 432.001C183.3 431.201 186.4 429.701 203.9 412.501L216.7 400.001H276.6C345.2 400.001 342.9 400.301 350.3 392.001C352.7 389.401 355.2 385.401 355.8 383.201C356.6 380.701 357 371.601 357 358.201C357 337.201 357 337.101 359.3 336.401C363.2 335.201 384 314.001 386.6 308.501C391.5 298.201 389.1 286.001 380.7 278.501L375.7 273.901L380.3 269.201C386.2 263.201 388.9 257.101 389 249.901C389 241.401 386.6 235.801 380.7 230.501L375.7 225.901L380.3 221.201C386.2 215.201 388.9 209.101 389 201.901C389 193.401 386.6 187.801 380.7 182.501L375.7 177.901L380.3 173.201C386.2 167.201 388.9 161.101 389 154.101C389 145.701 387.2 141.101 381.5 135.401C375.6 129.501 369.8 127.401 362 128.301L357 128.901V74.8009C357 35.9009 356.7 19.6009 355.8 16.8009C355.2 14.6009 352.7 10.6009 350.3 8.00087C342.7 -0.499129 349.1 0.000871152 244.6 0.100877C180.5 0.200853 151.4 0.500871 149 1.30086ZM177 25.0009C179.6 35.6009 182.9 40.7009 189.7 44.7009L194.5 47.5009H295.5L300 45.0009C306.8 41.2009 310.4 35.7009 313 25.1009L315.2 16.0009H325.7C335.4 16.0009 336.3 16.2009 338.5 18.5009L341 20.9009V142.301L334.2 149.401C326.8 157.201 325 161.301 325 170.101C325 177.201 328.5 184.501 334 189.301L338.3 192.901L332.8 198.801C326.8 205.301 325 209.801 325 218.101C325 225.201 328.5 232.501 334 237.301L338.3 240.901L332.8 246.801C326.8 253.301 325 257.801 325 266.101C325 273.201 328.5 280.501 334 285.301L338.3 288.901L332.8 294.801C325.3 302.901 323.1 312.001 326.2 322.201C327.6 327.001 333.8 334.301 338 336.001L341 337.201V358.201C341 379.001 341 379.101 338.5 381.501L336.1 384.001H169.9L167.5 381.501C165 379.101 165 378.801 165 362.701C165 352.301 164.4 343.001 163.5 337.401C160.5 320.701 152.5 305.201 139.7 291.401L133 284.201V259.701L149.5 243.001C162.6 229.801 166.5 225.201 168.6 220.501C175.7 205.201 168.6 186.501 153.3 180.301L149 178.501V20.9009L151.5 18.5009C153.7 16.2009 154.6 16.0009 164.3 16.0009H174.8L177 25.0009ZM297.4 21.7009C296.5 25.3009 294.9 28.4009 293.4 29.7009L290.9 32.0009H199.1L196.6 29.7009C195.1 28.4009 193.5 25.3009 192.6 21.7009L191.2 16.0009H298.8L297.4 21.7009ZM370.5 146.501C373.4 149.301 373.8 154.501 371.6 158.801C369.5 162.901 353.7 177.801 350.8 178.501C345.4 179.901 341.1 175.601 341 169.101C341 164.701 341.3 164.301 351.3 154.301C360.1 145.501 362.1 144.001 364.8 144.001C367 144.001 368.9 144.901 370.5 146.501ZM370.5 194.501C373.4 197.301 373.8 202.501 371.6 206.801C369.5 210.901 353.7 225.801 350.8 226.501C345.4 227.901 341.1 223.601 341 217.101C341 212.701 341.3 212.301 351.3 202.301C360.1 193.501 362.1 192.001 364.8 192.001C367 192.001 368.9 192.901 370.5 194.501ZM370.5 242.501C373.4 245.301 373.8 250.501 371.6 254.801C369.5 258.901 353.7 273.801 350.8 274.501C345.4 275.901 341.1 271.601 341 265.101C341 260.701 341.3 260.301 351.3 250.301C360.1 241.501 362.1 240.001 364.8 240.001C367 240.001 368.9 240.901 370.5 242.501ZM370.5 290.501C373.4 293.301 373.8 298.501 371.6 302.801C369.5 306.901 353.7 321.801 350.8 322.501C345.4 323.901 341.1 319.601 341 313.101C341 308.701 341.3 308.301 351.3 298.301C360.1 289.501 362.1 288.001 364.8 288.001C367 288.001 368.9 288.901 370.5 290.501Z" fill="url(#paint0_linear_527_5)"/>
<path d="M212 133.401L181.5 146.601L180.9 176.001H189V232.001H181V280.001H309V232.001H301V176.001H309.1L308.5 146.501L278 133.301C261.2 126.101 246.4 120.101 245 120.201C243.6 120.201 228.8 126.101 212 133.401ZM269.4 147.101C284 153.401 293 157.801 293 158.601C293 159.801 285.3 160.001 245 160.001C205.7 160.001 197 159.801 197 158.701C197 157.501 241.5 137.401 244.7 137.101C245.3 137.001 256.5 141.601 269.4 147.101ZM221 232.001H205V176.001H221V232.001ZM253 232.001H237V176.001H253V232.001ZM285 232.001H269V176.001H285V232.001ZM293 264.001H197V248.001H293V264.001Z" fill="url(#paint1_linear_527_5)"/>
<path d="M21.6 152.501C20.8 154.401 18.5 161.001 16.5 167.101C3.8 206.301 1.7 249.901 10.5 290.501C12.9 301.901 21.5 329.601 22.9 330.401C23.6 330.901 35.1 326.301 36.3 325.101C36.9 324.501 36 320.601 34.1 315.401C30.1 304.301 25.6 286.601 23.3 272.501C20.9 257.201 20.9 222.801 23.3 207.501C25.6 193.501 30.1 175.501 34 164.901C35.6 160.301 37 156.301 37 155.801C37 154.901 34.7 153.701 28.2 151.101L23 149.001L21.6 152.501Z" fill="url(#paint2_linear_527_5)"/>
<path d="M460.5 151.701C457.2 153.101 454.1 154.601 453.6 155.001C453.1 155.501 454.1 159.701 455.9 164.601C464.6 188.601 468.4 211.701 468.4 240.001C468.4 268.301 464.6 291.401 455.9 315.401C454.1 320.301 453.1 324.501 453.6 325.001C455.3 326.501 466.5 330.901 467.2 330.201C468.4 329.001 475 308.901 477.4 299.101C487.5 259.001 487.5 221.001 477.4 180.901C475 171.101 468.4 151.001 467.2 149.801C466.8 149.501 463.8 150.301 460.5 151.701Z" fill="url(#paint3_linear_527_5)"/>
<path d="M55.1 177.701C50.7 191.201 47.5 205.701 46.4 216.301C45.6 223.801 45.6 223.701 55.5 224.101C61.5 224.401 61.5 224.401 61.8 221.401C62.8 211.801 66.6 194.001 70 183.601C72.2 177.001 73.6 171.201 73.2 170.901C72.6 170.301 60.2 165.001 59.4 165.001C59.3 165.001 57.3 170.701 55.1 177.701Z" fill="url(#paint4_linear_527_5)"/>
<path d="M423.5 167.701C420.2 169.001 417.2 170.501 416.8 170.901C416.4 171.201 417.7 176.501 419.6 182.501C432.1 220.901 432.1 259.101 419.6 297.501C417.7 303.501 416.4 308.801 416.8 309.101C417.7 310.001 430.2 315.101 430.6 314.701C431.4 313.801 436.4 298.201 438.5 290.201C443.1 272.001 444.4 261.801 444.4 240.501C444.5 219.701 443.1 207.701 438.9 191.101C436.4 181.401 430.9 165.001 430.1 165.101C429.8 165.101 426.8 166.301 423.5 167.701Z" fill="url(#paint5_linear_527_5)"/>
<defs>
<linearGradient id="paint0_linear_527_5" x1="48.5177" y1="569.901" x2="636.793" y2="-60.7929" gradientUnits="userSpaceOnUse">
<stop stop-color="#0066FE"/>
<stop offset="1" stop-color="#0E7BE6" stop-opacity="0.26"/>
</linearGradient>
<linearGradient id="paint1_linear_527_5" x1="48.5177" y1="569.901" x2="636.793" y2="-60.7929" gradientUnits="userSpaceOnUse">
<stop stop-color="#0066FE"/>
<stop offset="1" stop-color="#0E7BE6" stop-opacity="0.26"/>
</linearGradient>
<linearGradient id="paint2_linear_527_5" x1="48.5177" y1="569.901" x2="636.793" y2="-60.7929" gradientUnits="userSpaceOnUse">
<stop stop-color="#0066FE"/>
<stop offset="1" stop-color="#0E7BE6" stop-opacity="0.26"/>
</linearGradient>
<linearGradient id="paint3_linear_527_5" x1="48.5177" y1="569.901" x2="636.793" y2="-60.7929" gradientUnits="userSpaceOnUse">
<stop stop-color="#0066FE"/>
<stop offset="1" stop-color="#0E7BE6" stop-opacity="0.26"/>
</linearGradient>
<linearGradient id="paint4_linear_527_5" x1="48.5177" y1="569.901" x2="636.793" y2="-60.7929" gradientUnits="userSpaceOnUse">
<stop stop-color="#0066FE"/>
<stop offset="1" stop-color="#0E7BE6" stop-opacity="0.26"/>
</linearGradient>
<linearGradient id="paint5_linear_527_5" x1="48.5177" y1="569.901" x2="636.793" y2="-60.7929" gradientUnits="userSpaceOnUse">
<stop stop-color="#0066FE"/>
<stop offset="1" stop-color="#0E7BE6" stop-opacity="0.26"/>
</linearGradient>
</defs>
</svg>
