<svg width="512" height="436" viewBox="0 0 512 436" fill="none" xmlns="http://www.w3.org/2000/svg">
<path d="M231.498 1.49954C180.498 9.59954 136.698 41.7995 113.398 88.1995C109.398 96.1995 108.698 96.9995 106.098 96.9995C101.798 96.9995 83.7981 101.8 75.7981 105.1C23.8981 126.5 -6.90187 180.7 1.49813 236.1C5.89813 265.8 21.5981 293.4 44.7981 312.4C58.9981 324 73.9981 331.4 93.9981 336.8C102.498 339.1 105.398 339.3 121.498 339.4C140.698 339.4 146.698 338.5 161.598 333.5C190.698 323.7 217.098 300.5 231.398 272.2C248.198 238.9 248.198 197.1 231.398 163.8C218.898 138.9 196.998 117.9 171.698 106.5C166.898 104.4 162.998 102.3 162.998 101.9C162.998 101.5 165.598 97.5995 168.898 93.2995C174.398 85.9995 179.298 80.9995 189.798 71.7995C194.998 67.1995 195.598 62.3995 191.398 59.0995C188.098 56.4995 186.398 56.4995 181.998 59.0995C176.198 62.5995 158.798 80.8995 153.098 89.4995C150.198 93.8995 147.698 97.5995 147.498 97.7995C146.998 98.3995 126.998 95.6995 126.998 95.0995C126.998 94.6995 128.998 90.8995 131.498 86.5995C152.498 49.6995 190.298 23.4995 232.798 16.4995C245.598 14.3995 273.198 14.8995 284.998 17.4995C295.898 19.8995 309.098 24.4995 319.898 29.5995C326.098 32.4995 329.998 33.7995 331.398 33.3995C332.598 33.0995 336.498 29.7995 340.198 26.1995C346.498 19.9995 346.898 19.7995 347.398 22.0995C348.298 26.5995 351.298 71.0995 350.598 71.6995C349.998 72.2995 302.698 69.1995 300.098 68.3995C299.198 68.0995 300.798 65.7995 304.898 61.5995C314.898 51.0995 313.098 46.8995 295.798 41.1995C282.598 36.7995 270.898 34.9995 255.998 34.9995C237.398 34.9995 215.598 39.3995 210.898 44.0995C208.398 46.5995 208.498 51.4995 211.098 54.0995C213.598 56.5995 217.598 56.3995 229.498 52.9995C244.198 48.8995 269.998 49.0995 284.798 53.4995L290.098 55.0995L286.598 58.9995C279.498 66.8995 281.298 76.9995 290.698 81.8995C292.698 82.8995 336.598 86.7995 349.598 87.0995C360.698 87.3995 365.998 82.3995 365.998 71.7995C365.998 61.0995 361.898 13.6995 360.798 11.5995C357.698 5.49954 351.598 2.29954 345.298 3.49954C342.698 3.99954 339.698 5.99954 334.998 10.5995L328.298 16.9995L320.898 13.5995C310.098 8.59954 295.298 4.19954 282.298 1.99954C268.798 -0.300463 244.298 -0.600464 231.498 1.49954ZM140.098 112.5C182.198 119.8 214.398 149.9 226.298 193C229.298 204.1 229.298 232.1 226.198 243.3C211.998 294.7 167.698 327.5 116.198 324.7C69.8981 322.2 30.3981 289.8 18.2981 244.5C15.9981 235.6 15.6981 232.7 15.6981 218C15.6981 203.3 15.9981 200.4 18.2981 191.5C26.1981 161.8 46.9981 136 73.6981 122.6C94.1981 112.4 118.398 108.7 140.098 112.5Z" fill="url(#paint0_linear_525_50)"/>
<path d="M105.998 132.5C78.9981 138 56.5981 155.1 44.1981 179.5C40.2981 187.3 36.9981 197.4 36.9981 201.7C36.9981 206 39.9981 209 44.2981 209C48.7981 209 50.1981 207.1 53.4981 196.8C57.1981 184.8 62.0981 176.9 71.4981 167.5C80.7981 158.2 87.4981 154 99.6981 149.7C107.698 146.9 109.598 146.6 121.498 146.6C132.398 146.5 135.698 146.9 141.998 148.8C154.898 152.9 162.598 157.6 172.598 167.5C180.498 175.3 182.398 177.8 186.298 186C196.698 207.8 196.698 228.2 186.298 250C182.398 258.2 180.498 260.7 172.598 268.5C159.198 281.8 144.998 288.4 127.298 289.7C94.0981 292.1 63.3981 271 53.4981 239.2C51.9981 234.4 49.8981 229.7 48.7981 228.7C44.1981 224.8 36.9981 228.4 36.9981 234.6C36.9981 238.3 40.7981 249.6 44.4981 257C50.4981 269.1 62.0981 282.2 73.2981 289.9C80.0981 294.5 93.1981 300.4 101.498 302.6C111.898 305.4 133.598 305.1 144.498 302.1C173.998 294.1 197.498 270.7 205.998 241C209.098 230.2 209.798 212.9 207.498 201.9C200.398 166.6 174.198 140 139.598 132.9C129.098 130.7 115.498 130.6 105.998 132.5Z" fill="url(#paint1_linear_525_50)"/>
<path d="M117.998 167.1C113.698 168.9 111.898 171.2 106.398 182.2C102.398 190.3 100.398 193.1 98.7981 193.5C97.4981 193.7 91.8981 194.6 86.3981 195.4C74.9981 197 71.8981 198.5 69.4981 203.7C66.4981 209.9 67.9981 213.2 78.4981 224L87.7981 233.5L85.6981 246.1C83.3981 260.4 83.8981 263.3 89.2981 267.2C94.3981 270.9 99.0981 270.1 111.198 263.6L121.998 257.8L132.698 263.6C147.598 271.6 154.298 271.2 158.598 262.2C160.198 258.7 160.198 258.1 158.098 246.1L155.998 233.6L164.998 224.5C174.698 214.8 176.498 211.4 174.898 205.7C173.098 199.1 169.698 197.2 156.198 195.1C149.498 194.1 143.598 193 143.198 192.6C142.798 192.2 139.998 187.1 136.998 181.2C133.998 175.4 130.398 169.8 128.998 168.8C125.798 166.5 121.198 165.8 117.998 167.1ZM126.398 193.7C132.598 206.1 133.698 206.9 146.398 208.8C152.198 209.7 156.998 210.7 156.998 211.1C156.998 211.5 153.998 214.5 150.398 217.7C140.398 226.5 139.698 228.8 142.498 243.6C143.298 247.9 143.798 251.6 143.498 251.8C143.298 252 139.298 250.1 134.698 247.6C128.398 244.2 125.098 243 121.998 243C118.898 243 115.598 244.2 109.298 247.6C104.698 250.1 100.698 252 100.398 251.7C100.098 251.5 100.698 247.2 101.598 242.2C103.898 229.5 103.398 227.9 94.4981 219C90.3981 214.9 86.9981 211.3 86.9981 210.9C86.9981 210.5 91.2981 209.7 96.5981 209C109.298 207.3 111.198 205.9 116.898 194.2C119.398 189.2 121.498 185 121.698 185C121.898 185 123.998 188.9 126.398 193.7Z" fill="url(#paint2_linear_525_50)"/>
<path d="M376.998 96.4995C376.198 96.6995 372.098 97.3995 367.998 97.9995C331.898 103.9 297.898 129.5 280.598 163.8C261.098 202.6 264.298 249.7 288.998 286.6C295.798 296.7 311.298 312.2 321.398 319C328.198 323.5 341.198 330.2 347.298 332.3C348.198 332.7 348.998 333.4 348.998 333.9C348.998 334.4 346.298 338.4 342.998 342.8C328.098 362.6 307.198 376.6 282.998 383C267.198 387.1 242.998 386.9 227.198 382.4L221.898 380.9L225.398 377C232.498 369.1 230.698 359 221.298 354.1C219.198 353 173.898 349.1 161.498 348.9C150.898 348.7 145.998 353.7 145.998 364.4C145.998 374.8 150.098 422.3 151.198 424.4C154.298 430.5 160.398 433.7 166.698 432.5C169.298 432 172.298 430 176.998 425.4L183.698 419L191.098 422.4C202.098 427.4 216.798 431.8 230.398 434.2C247.298 437.1 274.398 436.4 289.998 432.7C315.598 426.6 341.498 413.8 357.898 399.3C362.898 394.9 363.798 390.6 360.498 387C357.098 383.3 352.998 384.3 343.698 391.4C323.198 406.9 302.498 415.7 277.498 419.7C265.198 421.6 238.298 421 227.098 418.5C215.898 416 202.998 411.5 192.398 406.5C185.898 403.4 182.098 402.1 180.698 402.6C179.498 402.9 175.498 406.2 171.798 409.8C165.498 416 165.098 416.2 164.598 413.9C163.698 409.4 160.698 364.9 161.398 364.3C161.998 363.7 209.298 366.8 211.898 367.6C212.798 367.9 211.198 370.2 207.098 374.4C197.098 384.9 198.898 389.1 216.198 394.8C229.398 399.2 241.098 401 255.998 401C282.198 401 304.098 394.3 325.998 379.7C335.798 373.2 352.198 356.6 358.898 346.5C361.798 342.1 364.298 338.4 364.498 338.2C364.898 337.8 384.298 340.1 384.798 340.5C385.398 341.1 380.798 349.5 375.398 357.7C372.298 362.3 369.998 366.9 369.998 368.4C369.998 374.8 378.498 377.3 383.198 372.2C386.498 368.8 394.598 355.7 399.398 346.2C402.598 339.9 403.398 339 405.798 339C410.398 339 424.998 335.2 434.698 331.4C493.798 308.7 525.598 241.8 506.098 180.9C495.098 146.5 469.498 118.9 435.898 105C422.398 99.2995 410.198 96.8995 393.498 96.4995C385.298 96.2995 377.798 96.2995 376.998 96.4995ZM416.498 114.4C453.998 124 483.498 153.6 493.698 191.8C495.998 200.4 496.298 203.4 496.298 218C496.298 232.6 495.998 235.6 493.698 244.2C485.498 275 465.698 299.4 437.498 313.6C376.198 344.3 302.598 310.1 285.698 243C282.598 230.8 282.598 205.2 285.698 193C296.098 151.7 329.298 120.4 371.298 112.4C382.598 110.3 404.098 111.2 416.498 114.4Z" fill="url(#paint3_linear_525_50)"/>
<path d="M371.998 132.9C325.598 142.8 295.098 188.8 304.598 234.8C316.298 291.7 377.298 321.3 429.298 295.4C450.398 284.9 466.298 265.5 473.698 241.3C475.998 233.5 476.298 230.9 476.298 218C476.298 205.1 475.998 202.5 473.698 194.7C469.098 179.6 462.998 169.1 452.598 158.1C431.598 136 401.598 126.7 371.998 132.9ZM411.498 149.4C436.598 157.5 455.598 178.9 460.598 204.6C467.398 240.2 446.498 275.1 411.498 286.7C404.598 289 401.798 289.4 390.498 289.4C375.698 289.5 368.098 287.7 355.498 281.2C345.198 275.8 331.698 262.1 326.198 251.4C311.898 223.5 316.598 191 338.098 168.5C348.898 157.3 360.298 150.9 375.398 147.4C384.798 145.3 401.598 146.2 411.498 149.4Z" fill="url(#paint4_linear_525_50)"/>
<path d="M386.298 164C383.598 165.1 381.998 168 381.998 171.7C381.998 174.1 381.398 174.8 378.598 175.8C374.098 177.5 367.398 184.8 366.098 189.6C364.498 195.4 364.798 202 366.898 206.5C369.898 213.1 376.898 218 390.698 223C398.698 225.9 401.998 229.1 401.998 233.9C401.998 245.2 389.798 250.4 377.198 244.5C370.598 241.5 367.598 241.4 364.898 244.1C363.498 245.5 362.998 247.1 363.198 249.8C363.398 252.8 364.298 253.9 367.698 256.3C369.998 258 373.998 259.8 376.698 260.5C381.098 261.6 381.498 262 382.098 265.3C382.798 269.7 384.298 271.6 387.598 272.4C392.298 273.6 396.898 269.6 396.998 264.3C396.998 261.6 397.598 260.9 401.498 259C414.598 252.6 420.698 235.8 414.398 223.2C411.098 216.6 407.898 214.1 395.098 208.6C381.098 202.5 379.998 201.7 379.998 197.5C379.998 195.4 380.898 193.1 382.398 191.4C385.698 187.5 392.798 187.5 399.298 191.3C404.898 194.6 407.398 194.7 410.498 191.5C415.598 186.5 412.598 181 402.498 176.4C398.098 174.4 396.998 173.4 396.998 171.5C396.998 167.8 395.998 166 392.898 164.5C389.698 162.8 389.398 162.8 386.298 164Z" fill="url(#paint5_linear_525_50)"/>
<defs>
<linearGradient id="paint0_linear_525_50" x1="-115.107" y1="523.71" x2="544.855" y2="-190.665" gradientUnits="userSpaceOnUse">
<stop stop-color="#0066FE"/>
<stop offset="1" stop-color="#0E7BE6" stop-opacity="0.26"/>
</linearGradient>
<linearGradient id="paint1_linear_525_50" x1="-115.107" y1="523.71" x2="544.855" y2="-190.665" gradientUnits="userSpaceOnUse">
<stop stop-color="#0066FE"/>
<stop offset="1" stop-color="#0E7BE6" stop-opacity="0.26"/>
</linearGradient>
<linearGradient id="paint2_linear_525_50" x1="-115.107" y1="523.71" x2="544.855" y2="-190.665" gradientUnits="userSpaceOnUse">
<stop stop-color="#0066FE"/>
<stop offset="1" stop-color="#0E7BE6" stop-opacity="0.26"/>
</linearGradient>
<linearGradient id="paint3_linear_525_50" x1="-115.107" y1="523.71" x2="544.855" y2="-190.665" gradientUnits="userSpaceOnUse">
<stop stop-color="#0066FE"/>
<stop offset="1" stop-color="#0E7BE6" stop-opacity="0.26"/>
</linearGradient>
<linearGradient id="paint4_linear_525_50" x1="-115.107" y1="523.71" x2="544.855" y2="-190.665" gradientUnits="userSpaceOnUse">
<stop stop-color="#0066FE"/>
<stop offset="1" stop-color="#0E7BE6" stop-opacity="0.26"/>
</linearGradient>
<linearGradient id="paint5_linear_525_50" x1="-115.107" y1="523.71" x2="544.855" y2="-190.665" gradientUnits="userSpaceOnUse">
<stop stop-color="#0066FE"/>
<stop offset="1" stop-color="#0E7BE6" stop-opacity="0.26"/>
</linearGradient>
</defs>
</svg>
