<svg width="409" height="512" viewBox="0 0 409 512" fill="none" xmlns="http://www.w3.org/2000/svg">
<path d="M130.1 1.49886C95.7004 8.99886 73.7004 45.7989 83.6004 79.1989C86.8004 89.8989 91.2004 97.1989 99.5004 105.599C112.3 118.599 125.6 124.299 143.5 124.399C158.5 124.499 169.5 120.799 181.7 111.499C191.4 104.299 202 88.7989 202 81.8989C202 78.7989 198.2 74.9989 195.1 74.9989C191.2 74.9989 189.1 76.8989 185.9 83.1989C176.7 101.499 156.1 112.299 136.6 109.099C110.7 104.799 92.5004 79.8989 97.0004 54.8989C100.4 35.7989 115.3 20.0989 133.8 16.0989C156.6 11.1989 179.4 23.8989 188.1 46.2989C191.5 55.0989 196.7 57.3989 201.7 52.3989C205 49.0989 204.5 45.3989 198.9 34.1989C186.7 9.29885 157.7 -4.40114 130.1 1.49886Z" fill="url(#paint0_linear_525_47)"/>
<path d="M132.3 30.8988C126 32.9988 120.8 36.8988 116.8 42.3988C111.8 49.2988 110.7 52.7988 110.6 61.9988C110.5 69.6988 110.8 71.1988 113.8 77.1988C119.7 89.0988 130 95.4988 143.5 95.4988C150.6 95.4988 152.3 95.0988 158.2 92.1988C165.5 88.5988 170.6 83.4988 174.2 76.0988C176.1 72.3988 176.5 69.7988 176.5 62.4988C176.5 54.6988 176.1 52.7988 173.7 47.7988C166.3 32.6988 148.3 25.2988 132.3 30.8988ZM151.3 45.5988C158.9 49.4988 162.4 55.5988 161.8 63.5988C160.3 81.4988 138.2 87.1988 128 72.3988C123.6 65.7988 124.7 54.3988 130.3 49.2988C136.1 43.9988 145 42.3988 151.3 45.5988Z" fill="url(#paint1_linear_525_47)"/>
<path d="M231.2 65.2989C228.2 68.3989 228.4 72.4989 231.6 75.6989C233.6 77.6989 234.7 78.0989 237.3 77.5989C243.7 76.3989 246 69.8989 241.5 65.4989C238.4 62.2989 234.1 62.1989 231.2 65.2989Z" fill="url(#paint2_linear_525_47)"/>
<path d="M337.9 88.9988C327.6 90.7988 317.2 98.9988 312.8 108.799C309.8 115.499 309.8 128.599 312.8 135.299C324.2 160.699 359.8 162.299 373 137.899C376.3 131.899 376.5 130.899 376.5 121.999C376.5 113.499 376.2 111.899 373.7 107.099C366.6 93.7988 352.4 86.4988 337.9 88.9988ZM348.3 104.099C350.4 104.599 353.7 106.499 355.7 108.299C364.3 115.799 364.2 128.199 355.7 135.699C347 143.399 334.9 141.699 328.3 131.999C320.2 120.199 328.4 104.599 343.5 103.099C344.1 103.099 346.2 103.499 348.3 104.099Z" fill="url(#paint3_linear_525_47)"/>
<path d="M264.1 93.5988C261.7 96.5988 261.5 97.8988 263.1 101.299C264.2 103.799 267.8 105.999 270.6 105.999C273.1 105.999 277 101.299 277 98.1988C277 91.6988 268.1 88.4988 264.1 93.5988Z" fill="url(#paint4_linear_525_47)"/>
<path d="M231.6 95.2989C229.1 97.7989 229 98.1989 229 111.399V124.999L226.3 125.499C224.7 125.799 220.5 126.899 216.9 127.999C213.3 129.099 210.1 129.999 209.7 129.999C209.3 129.999 209 127.599 209 124.699C209 120.399 208.5 118.899 206.7 117.199C203.8 114.499 200 114.399 196.9 116.899C194.7 118.699 194.5 119.699 194.2 129.699C193.9 139.899 193.7 140.699 191.1 143.499C187 147.999 183.3 153.099 180.2 158.899L177.3 163.999L171.4 158.799C161.5 150.199 147.3 142.099 135.7 138.399C130.5 136.799 129.5 136.699 125.7 137.999C123.1 138.999 120.7 140.699 119.3 142.899C117 146.199 117 146.699 117 176.099V205.799L109.7 209.799C93.2004 218.899 74.2004 236.399 63.5004 252.499C52.9004 268.499 44.6004 288.599 41.9004 304.999L40.7004 311.999H25.8004C9.10039 311.999 6.30039 312.799 3.00039 318.299C1.10039 321.299 1.00039 323.599 1.00039 362.999C1.00039 402.399 1.10039 404.699 3.00039 407.699C6.60039 413.599 8.40039 413.999 34.3004 413.999H57.6004L63.5004 422.699C75.8004 441.199 98.6004 460.599 119.2 470.299L128 474.499V496.999H67.1004C7.1004 496.999 6.20039 496.999 3.60039 499.099C0.00039053 501.899 0.00039053 507.099 3.60039 509.899L6.30039 511.999H403.7L406.4 509.899C408.3 508.399 409 506.899 409 504.499C409 502.099 408.3 500.599 406.4 499.099C403.8 497.099 402.5 496.999 375.9 496.999H348L348.1 478.199V459.499L355.1 454.499C374.4 440.799 393.7 413.699 402 388.999C407.1 373.799 408.2 366.499 408.7 342.899C409.3 317.299 408 305.499 402.8 288.999C397 270.399 380.4 241.999 373.5 238.799C368.5 236.599 362 242.099 363.6 247.299C363.9 248.399 366.8 252.799 369.9 256.999C381.2 272.199 389.5 291.699 392.5 309.999C394.5 322.499 394.5 352.299 392.5 364.699C387.3 396.999 368.6 426.999 342.4 445.299C337.9 448.499 333.9 451.699 333.6 452.599C333.3 453.499 333 463.799 333 475.599V496.999H285.3L284.1 487.699C282.4 475.199 281.3 471.199 279 469.999C278 469.499 270.2 468.999 261.6 468.999C247.3 468.999 245.8 469.199 244 470.999C241 473.999 241.3 479.299 244.6 481.899C246.9 483.699 248.7 483.999 257.6 483.999C263.2 483.999 268.1 484.299 268.3 484.699C268.6 485.199 269.1 488.099 269.4 491.199L270.1 496.999H205.9L206.6 491.199C206.9 488.099 207.4 485.199 207.7 484.799C207.9 484.299 209.8 483.999 211.9 483.999C217.3 483.999 221 480.899 221 476.399C221 470.399 218.5 468.999 207.9 468.999C202.9 468.999 198 469.499 197 469.999C194.7 471.199 193.6 475.199 191.9 487.699L190.7 496.999H143V481.699C143 470.999 142.6 465.899 141.8 464.799C141.1 463.899 135.5 460.999 129.3 458.199C123.2 455.499 114.2 450.699 109.3 447.499C97.5004 439.599 83.0004 424.899 75.3004 412.999C65.2004 397.499 69.0004 398.999 40.5004 398.999H16.0004V326.999H32.9004C54.1004 326.999 53.6004 327.299 55.6004 313.999C61.6004 273.199 84.8004 240.199 121.3 220.499C126.1 217.899 130.5 214.999 131 213.999C131.6 212.899 132 199.999 132 182.599C132 166.299 132.2 152.999 132.5 152.999C132.8 152.999 136 154.299 139.6 155.999C149.6 160.499 159 167.199 166.6 175.199L173.5 182.499L173.8 190.499C174.3 202.999 181.1 220.299 188 226.499C190.9 229.099 190.5 229.999 186.5 229.999C182.2 229.999 178 233.699 178 237.499C178 238.899 179.1 241.199 180.5 242.499L182.9 244.999H236.9C266.6 244.999 291.6 244.699 292.5 244.399C294.9 243.399 297.1 238.399 296.4 235.499C295.5 231.699 292.3 229.999 286.3 229.999H281L284.9 224.999C287.1 222.299 290.1 217.499 291.6 214.499C294.2 209.099 294.4 208.899 297.4 209.499C308.4 211.799 324.2 218.599 340.5 227.999C344.2 230.099 344.8 230.199 347.5 228.899C351.1 227.199 352.8 223.099 351.4 219.399C349.5 213.999 324.8 201.299 307 196.599L298.5 194.299L297.8 184.399C296.8 168.099 291.3 155.099 281.4 144.999L277 140.399V132.299C277 124.699 276.8 123.999 274.4 122.099C269.4 118.199 263.6 120.399 262.4 126.599C261.9 129.299 261.4 129.999 260.1 129.499C259.2 129.099 255.4 127.999 251.5 126.999L244.5 125.199L244 111.099C243.5 95.6989 243 94.5989 237.3 93.3989C234.7 92.8989 233.6 93.2989 231.6 95.2989ZM247.5 141.399C272.6 148.099 287.9 173.799 281.5 198.499C278.4 210.099 271.9 219.199 261.9 225.899L255.8 229.999H216.5L211.5 227.099C200.3 220.699 191.2 207.199 189.1 194.099C185.4 171.099 200.7 147.599 223.1 141.599C230 139.699 241 139.599 247.5 141.399Z" fill="url(#paint5_linear_525_47)"/>
<path d="M229.4 153.999C219.2 156.099 209.1 164.199 204.8 173.799C203.2 177.199 202.7 180.699 202.6 186.499C202.5 193.699 202.9 195.299 205.8 201.199C209.8 209.299 216 215.099 223.9 218.099C231.4 220.899 243.3 220.399 250 217.099C256.1 213.999 262.6 207.499 265.7 201.499C269.1 194.899 270 183.499 267.6 176.399C262.3 160.699 245.2 150.699 229.4 153.999ZM245.3 171.299C255.1 176.799 257 190.999 249.2 199.399C238.8 210.499 219.8 204.499 217.4 189.199C216.1 181.199 222.5 170.999 229.8 169.399C231.3 169.099 233 168.699 233.5 168.499C235.5 167.699 241.6 169.199 245.3 171.299Z" fill="url(#paint6_linear_525_47)"/>
<path d="M41.3004 122.999C28.0004 125.799 17.6004 136.599 15.1004 150.199C11.0004 172.799 30.5004 192.399 53.6004 188.799C76.2004 185.299 88.3004 160.199 77.2004 139.699C70.6004 127.399 55.0004 120.199 41.3004 122.999ZM56.8004 139.699C58.6004 140.599 61.2004 142.699 62.5004 144.399C71.9004 156.899 63.5004 174.199 48.0004 174.199C31.4004 174.199 23.3004 154.699 35.0004 142.999C40.9004 137.099 48.8004 135.899 56.8004 139.699Z" fill="url(#paint7_linear_525_47)"/>
<path d="M86.0004 301.999C84.1004 303.899 84.0004 305.299 84.0004 325.899C84.0004 337.999 84.3004 348.599 84.6004 349.499C85.7004 352.299 90.4004 354.099 93.8004 352.899C98.5004 351.299 99.0004 348.799 99.0004 326.099C99.0004 306.499 98.9004 305.099 96.9004 302.599C94.3004 299.299 89.0004 298.999 86.0004 301.999Z" fill="url(#paint8_linear_525_47)"/>
<defs>
<linearGradient id="paint0_linear_525_47" x1="-91" y1="615" x2="651" y2="69.5" gradientUnits="userSpaceOnUse">
<stop stop-color="#0066FE"/>
<stop offset="1" stop-color="#0E7BE6" stop-opacity="0.26"/>
</linearGradient>
<linearGradient id="paint1_linear_525_47" x1="-91" y1="615" x2="651" y2="69.5" gradientUnits="userSpaceOnUse">
<stop stop-color="#0066FE"/>
<stop offset="1" stop-color="#0E7BE6" stop-opacity="0.26"/>
</linearGradient>
<linearGradient id="paint2_linear_525_47" x1="-91" y1="615" x2="651" y2="69.5" gradientUnits="userSpaceOnUse">
<stop stop-color="#0066FE"/>
<stop offset="1" stop-color="#0E7BE6" stop-opacity="0.26"/>
</linearGradient>
<linearGradient id="paint3_linear_525_47" x1="-91" y1="615" x2="651" y2="69.5" gradientUnits="userSpaceOnUse">
<stop stop-color="#0066FE"/>
<stop offset="1" stop-color="#0E7BE6" stop-opacity="0.26"/>
</linearGradient>
<linearGradient id="paint4_linear_525_47" x1="-91" y1="615" x2="651" y2="69.5" gradientUnits="userSpaceOnUse">
<stop stop-color="#0066FE"/>
<stop offset="1" stop-color="#0E7BE6" stop-opacity="0.26"/>
</linearGradient>
<linearGradient id="paint5_linear_525_47" x1="-91" y1="615" x2="651" y2="69.5" gradientUnits="userSpaceOnUse">
<stop stop-color="#0066FE"/>
<stop offset="1" stop-color="#0E7BE6" stop-opacity="0.26"/>
</linearGradient>
<linearGradient id="paint6_linear_525_47" x1="-91" y1="615" x2="651" y2="69.5" gradientUnits="userSpaceOnUse">
<stop stop-color="#0066FE"/>
<stop offset="1" stop-color="#0E7BE6" stop-opacity="0.26"/>
</linearGradient>
<linearGradient id="paint7_linear_525_47" x1="-91" y1="615" x2="651" y2="69.5" gradientUnits="userSpaceOnUse">
<stop stop-color="#0066FE"/>
<stop offset="1" stop-color="#0E7BE6" stop-opacity="0.26"/>
</linearGradient>
<linearGradient id="paint8_linear_525_47" x1="-91" y1="615" x2="651" y2="69.5" gradientUnits="userSpaceOnUse">
<stop stop-color="#0066FE"/>
<stop offset="1" stop-color="#0E7BE6" stop-opacity="0.26"/>
</linearGradient>
</defs>
</svg>
