<svg width="468" height="482" viewBox="0 0 468 482" fill="none" xmlns="http://www.w3.org/2000/svg">
<path d="M42.8009 1.50011C22.6009 6.50011 6.70089 22.7001 2.40089 42.9001C0.300892 52.8001 0.400892 274.3 2.50089 284.3C5.60089 299.1 16.3009 313.3 29.9009 320.4C41.9009 326.7 44.9009 327 96.6009 327H142.601L137.201 343.1C132.601 356.5 131.501 359 130.101 358.4C126.501 356.8 120.201 356.8 116.901 358.5C115.101 359.5 108.601 364 102.401 368.5C93.3009 375.3 91.0009 377.5 90.0009 380.5C87.6009 387.7 88.9009 390.8 101.901 408.8C136.801 457.4 151.801 477.5 154.301 479.4C156.301 480.9 158.601 481.5 162.301 481.5C167.101 481.5 168.301 481 177.401 474.6C193.801 463.2 197.001 459.6 197.001 452.7V449.3L209.301 445C226.301 439.1 244.501 431.1 257.501 423.8C274.201 414.5 288.701 404.5 292.001 399.9C298.101 391.4 298.101 380 292.101 370.9C289.401 367 289.301 366.7 290.701 362.7C293.201 355.6 291.301 349.2 284.601 341.1C281.501 337.5 281.001 336.1 281.001 331.9V327H349.301C425.301 327 425.601 326.9 438.101 320.4C452.301 312.9 463.401 297.6 465.901 282C467.401 273.1 467.401 53.9001 466.001 45.1001C462.901 26.3001 449.101 9.80009 430.701 3.10011L423.501 0.500106L236.001 0.300094C79.4009 0.200088 47.6009 0.4001 42.8009 1.50011ZM427.301 17.8001C438.801 22.5001 448.701 34.6001 451.001 46.9001C452.401 54.2001 452.401 272.8 451.001 280.1C448.701 292.4 438.801 304.5 427.301 309.2L421.501 311.5L347.501 311.8C302.201 312 273.901 311.7 274.501 311.1C275.101 310.6 284.201 304.1 294.901 296.6L314.301 283H337.601C361.701 283 364.601 282.6 368.801 278.7C374.101 273.8 375.001 270.3 375.001 254C375.001 234.6 373.401 230.3 364.801 225.9C361.401 224.1 358.501 224 326.301 224C286.501 224 285.501 224.2 280.301 232.1C277.801 235.9 277.501 237.4 277.201 245.9L276.801 255.5L240.801 281.3C221.001 295.5 204.601 306.9 204.401 306.7C204.101 306.5 205.101 302.1 206.501 296.9C209.301 286.4 209.701 277.6 207.601 272.6C205.701 267.9 200.301 262.2 195.601 259.7C189.901 256.7 179.101 256.7 173.501 259.7C164.401 264.5 162.301 268.5 152.101 299.3L147.801 312H99.6009C47.3009 312 44.6009 311.8 35.4009 306.4C29.1009 302.7 21.5009 293.9 18.8009 287.2L16.5009 281.5V45.5001L18.8009 39.8001C21.5009 33.1001 29.3009 24.1001 35.4009 20.5001C45.1009 14.8001 34.5009 15.1001 236.001 15.3001L421.501 15.5001L427.301 17.8001ZM305.001 261C307.901 263.9 307.601 268.1 304.301 271.1C302.701 272.5 284.401 285.7 263.501 300.5C216.501 333.7 217.001 333.3 217.001 337.3C217.001 341.2 220.501 345 224.001 345C225.801 345 231.901 341.2 243.001 333.3L259.301 321.7L262.701 325.3C268.401 331.5 267.901 332.3 250.801 344.5C231.401 358.2 230.001 359.5 230.001 363.6C230.001 367.8 234.201 371.4 238.101 370.6C239.601 370.3 247.001 365.7 254.601 360.2C262.301 354.8 269.101 350 269.801 349.6C271.401 348.6 273.701 350.4 275.601 354.3C277.001 356.8 277.001 357.4 275.601 359.4C274.801 360.7 266.401 367.2 257.001 373.9C246.601 381.4 239.501 387.1 239.001 388.6C237.901 391.3 239.001 394.9 241.401 397C245.001 399.9 248.301 398.6 262.301 388.6C269.801 383.3 276.701 378.7 277.501 378.4C280.101 377.4 282.401 384.3 280.901 388.7C280.001 391.6 277.901 393.4 268.601 399.5C248.601 412.7 226.101 423.5 202.201 431.5C192.601 434.6 190.601 435 189.501 433.9C187.101 431.2 144.001 371 144.001 370.3C144.001 368 175.301 278.1 176.801 276.1C182.001 269 194.001 272.7 194.001 281.3C194.001 283.2 191.801 293.5 189.001 304.1C186.301 314.8 184.001 324.7 184.001 326.1C184.001 330 187.101 333.3 190.801 333.3C194.501 333.3 189.501 336.7 249.501 293.6C284.201 268.6 298.301 259.1 300.301 259C301.801 259 303.901 259.9 305.001 261Z" fill="url(#paint0_linear_527_4)"/>
<path d="M109.001 47.5001C78.5009 54.1001 54.1009 77.6001 45.9009 108.5C43.1009 119.2 42.8009 136.4 45.4009 147C53.1009 178.4 77.0009 202.2 108.501 209.6C118.601 212 136.201 211.8 146.501 209.1C174.301 201.8 195.601 181.8 205.201 154C208.301 144.9 208.401 143.8 208.501 129.5C208.501 116.8 208.101 113.3 206.201 106.7C201.901 91.7001 194.301 79.4001 182.801 68.4001C171.501 57.7001 158.101 50.6001 143.101 47.4001C134.801 45.7001 117.501 45.7001 109.001 47.5001ZM147.801 64.3001C188.801 78.5001 206.401 126.2 184.401 163.7L181.801 168.2L179.801 164.9C176.001 158.6 170.501 152.7 164.601 148.3L158.601 143.9L158.901 125.2C159.201 102.2 158.101 97.9001 149.101 88.9001C141.501 81.3001 134.601 78.7001 123.501 79.2001C110.501 79.7001 101.201 85.6001 94.9009 97.2001L91.5009 103.5L91.2009 120C90.9009 130.8 91.2009 137.8 92.0009 140.5C93.1009 144.2 93.1009 144.5 90.9009 146C86.5009 148.8 78.2009 157.1 74.8009 162.1C73.0009 164.7 71.1009 166.8 70.5009 166.6C68.7009 166.1 62.2009 152 60.4009 144.7C51.7009 109.2 73.6009 72.6001 109.201 63.0001C119.701 60.1001 137.501 60.7001 147.801 64.3001ZM144.001 125.3C144.001 137.2 143.901 137.8 141.101 142.2C133.001 154.9 114.301 153.4 107.901 139.5C106.401 136.4 106.001 133 106.001 124.2V113H144.001V125.3Z" fill="url(#paint1_linear_527_4)"/>
<path d="M242.201 57.3001C237.201 59.2001 232.001 63.8001 229.901 68.4001C227.201 74.4001 227.201 99.6001 229.901 105.6C232.101 110.5 237.701 115.3 242.901 116.9C248.001 118.4 403.801 118.5 409.301 116.9C414.001 115.6 419.501 110.9 422.301 105.6C424.301 101.9 424.501 100 424.501 87.0001C424.501 73.9001 424.301 72.1001 422.301 68.3001C419.601 63.2001 414.101 58.7001 409.101 57.1001C403.601 55.5001 246.801 55.7001 242.201 57.3001ZM407.101 72.9001C409.401 74.7001 409.501 75.4001 409.501 87.0001C409.501 98.6001 409.401 99.3001 407.101 101.1C404.901 102.9 402.101 103 325.901 103C248.301 103 247.001 103 245.001 101C243.201 99.2001 243.001 97.7001 243.001 87.0001C243.001 76.3001 243.201 74.8001 245.001 73.0001C247.001 71.0001 248.301 71.0001 325.901 71.0001C402.101 71.0001 404.901 71.1001 407.101 72.9001Z" fill="url(#paint2_linear_527_4)"/>
<path d="M244.101 140C239.001 141.2 232.901 146 230.301 150.9C228.201 154.9 228.001 156.5 228.001 170.2C228.001 186.5 228.801 189.7 234.701 195.2C241.001 201.2 237.401 201 326.301 201H407.601L412.701 198.5C422.401 193.6 425.501 185.3 424.801 166.6C424.201 152 421.501 146.5 412.501 141.7C408.501 139.5 408.301 139.5 328.001 139.3C283.701 139.2 246.001 139.5 244.101 140ZM405.501 155.2C409.001 156.8 410.301 161.9 409.901 172.7C409.601 179.9 409.101 182.2 407.601 183.9L405.701 186H326.601C256.601 186 247.201 185.8 245.201 184.4C243.101 183 243.001 182.2 243.001 170.5C243.001 158.3 243.001 158.1 245.601 156.1C248.201 154 248.901 154 325.601 154C382.301 154 403.601 154.3 405.501 155.2Z" fill="url(#paint3_linear_527_4)"/>
<defs>
<linearGradient id="paint0_linear_527_4" x1="47.5107" y1="565.167" x2="631.65" y2="-42.0766" gradientUnits="userSpaceOnUse">
<stop stop-color="#0066FE"/>
<stop offset="1" stop-color="#0E7BE6" stop-opacity="0.26"/>
</linearGradient>
<linearGradient id="paint1_linear_527_4" x1="47.5107" y1="565.167" x2="631.65" y2="-42.0766" gradientUnits="userSpaceOnUse">
<stop stop-color="#0066FE"/>
<stop offset="1" stop-color="#0E7BE6" stop-opacity="0.26"/>
</linearGradient>
<linearGradient id="paint2_linear_527_4" x1="47.5107" y1="565.167" x2="631.65" y2="-42.0766" gradientUnits="userSpaceOnUse">
<stop stop-color="#0066FE"/>
<stop offset="1" stop-color="#0E7BE6" stop-opacity="0.26"/>
</linearGradient>
<linearGradient id="paint3_linear_527_4" x1="47.5107" y1="565.167" x2="631.65" y2="-42.0766" gradientUnits="userSpaceOnUse">
<stop stop-color="#0066FE"/>
<stop offset="1" stop-color="#0E7BE6" stop-opacity="0.26"/>
</linearGradient>
</defs>
</svg>
